<?xml version="1.0" encoding="UTF-8"?>
<svg xmlns="http://www.w3.org/2000/svg" width="50" height="50">
  <defs>
    <linearGradient id="ButtonGradient" x1="0" y1="0" x2="0" y2="100%">
      <stop offset="0%" stop-color="white" />
      <stop offset="100%" stop-color="#80C0E1" />
    </linearGradient>
  </defs>
  <g transform="scale(0.5, 0.5)">
    <rect x="0" y="0" width="100" height="100" fill="#6090B1" rx="0" ry="0" />
    <rect x="3" y="3" width="94" height="94" fill="url(#ButtonGradient)" rx="2" ry="2" />
    <g transform="rotate(-90 28 25)">
      <rect x="25" y="25" width="6" height="45" fill="#103061" />
      <circle cx="28" cy="25" r="6" fill="#103061" />
      <circle cx="28" cy="70" r="6" fill="#103061" />
    </g>
    <g transform="rotate(-90 28 25)">
      <rect x="25" y="25" width="6" height="32" fill="#103061" />
      <circle cx="28" cy="25" r="6" fill="#103061" />
      <circle cx="28" cy="57" r="6" fill="#103061" />
    </g>
    <g transform="rotate(-90 28 50)">
      <rect x="25" y="50" width="6" height="45" fill="#205081" />
      <circle cx="28" cy="50" r="6" fill="#205081" />
      <circle cx="28" cy="95" r="6" fill="#205081" />
    </g>
    <g transform="rotate(-90 28 50)">
      <rect x="25" y="50" width="6" height="25" fill="#205081" />
      <circle cx="28" cy="50" r="6" fill="#205081" />
      <circle cx="28" cy="75" r="6" fill="#205081" />
    </g>
    <g transform="rotate(-90 28 75)">
      <rect x="25" y="75" width="6" height="45" fill="#000000" />
      <circle cx="28" cy="75" r="6" fill="#000000" />
      <circle cx="28" cy="120" r="6" fill="#000000" />
    </g>
    <g transform="rotate(-90 28 75)">
      <rect x="25" y="75" width="6" height="20" fill="#000000" />
      <circle cx="28" cy="75" r="6" fill="#000000" />
      <circle cx="28" cy="95" r="6" fill="#000000" />
    </g>
  </g>
</svg>
