<?xml version="1.0" encoding="UTF-8"?>
<svg xmlns="http://www.w3.org/2000/svg" width="90" height="50">
  <g transform="scale(0.5, 0.5)">
    <rect x="0" y="0" width="180" height="100" fill="#6090B1" rx="0" ry="0" />
    <rect x="3" y="3" width="174" height="94" fill="url(#ButtonGradient)" rx="2" ry="2" />
    <g transform="rotate(0 23 21)">
      <rect x="20" y="21" width="6" height="55" fill="black" />
      <circle cx="23" cy="21" r="6" fill="black" />
      <circle cx="23" cy="76" r="6" fill="black" />
    </g>
    <g transform="rotate(-90 23 36)">
      <rect x="20" y="36" width="6" height="20" fill="black" />
      <circle cx="23" cy="36" r="6" fill="black" />
      <circle cx="23" cy="56" r="6" fill="black" />
    </g>
    <g transform="rotate(0 61 36)">
      <rect x="58" y="36" width="6" height="40" fill="black" />
      <circle cx="61" cy="36" r="6" fill="black" />
      <circle cx="61" cy="76" r="6" fill="black" />
    </g>
    <g transform="rotate(-135 61 56)">
      <rect x="58" y="56" width="6" height="28" fill="black" />
      <circle cx="61" cy="56" r="6" fill="black" />
      <circle cx="61" cy="84" r="6" fill="black" />
    </g>
    <g transform="rotate(0 99 36)">
      <rect x="96" y="36" width="6" height="40" fill="black" />
      <circle cx="99" cy="36" r="6" fill="black" />
      <circle cx="99" cy="76" r="6" fill="black" />
    </g>
    <g transform="rotate(0 118 16)">
      <rect x="115" y="16" width="6" height="60" fill="black" />
      <circle cx="118" cy="16" r="6" fill="black" />
      <circle cx="118" cy="76" r="6" fill="black" />
    </g>
    <g transform="rotate(-135 118 56)">
      <rect x="115" y="56" width="6" height="28" fill="#205081" />
      <circle cx="118" cy="56" r="6" fill="#205081" />
      <circle cx="118" cy="84" r="6" fill="#205081" />
    </g>
    <g transform="rotate(-45 118 56)">
      <rect x="115" y="56" width="6" height="28" fill="#205081" />
      <circle cx="118" cy="56" r="6" fill="#205081" />
      <circle cx="118" cy="84" r="6" fill="#205081" />
    </g>
    <g transform="rotate(0 156 36)">
      <rect x="153" y="36" width="6" height="40" fill="black" />
      <circle cx="156" cy="36" r="6" fill="black" />
      <circle cx="156" cy="76" r="6" fill="black" />
    </g>
  </g>
  <defs>
    <linearGradient id="ButtonGradient" x1="0" y1="0" x2="0" y2="100%">
      <stop offset="0%" stop-color="white" />
      <stop offset="100%" stop-color="#80C0E1" />
    </linearGradient>
  </defs>
</svg>
