<?xml version="1.0" encoding="UTF-8"?>
<svg xmlns="http://www.w3.org/2000/svg" width="235" height="50">
  <g transform="scale(0.5, 0.5)">
    <rect x="0" y="0" width="470" height="100" fill="#6090B1" rx="0" ry="0" />
    <rect x="3" y="3" width="464" height="94" fill="url(#ButtonGradient)" rx="2" ry="2" />
    <g transform="rotate(0 313 21)">
      <rect x="310" y="21" width="6" height="55" fill="black" />
      <circle cx="313" cy="21" r="6" fill="black" />
      <circle cx="313" cy="76" r="6" fill="black" />
    </g>
    <g transform="rotate(-90 313 36)">
      <rect x="310" y="36" width="6" height="20" fill="black" />
      <circle cx="313" cy="36" r="6" fill="black" />
      <circle cx="313" cy="56" r="6" fill="black" />
    </g>
    <g transform="rotate(0 351 36)">
      <rect x="348" y="36" width="6" height="40" fill="black" />
      <circle cx="351" cy="36" r="6" fill="black" />
      <circle cx="351" cy="76" r="6" fill="black" />
    </g>
    <g transform="rotate(-135 351 56)">
      <rect x="348" y="56" width="6" height="28" fill="black" />
      <circle cx="351" cy="56" r="6" fill="black" />
      <circle cx="351" cy="84" r="6" fill="black" />
    </g>
    <g transform="rotate(0 389 36)">
      <rect x="386" y="36" width="6" height="40" fill="black" />
      <circle cx="389" cy="36" r="6" fill="black" />
      <circle cx="389" cy="76" r="6" fill="black" />
    </g>
    <g transform="rotate(0 408 16)">
      <rect x="405" y="16" width="6" height="60" fill="black" />
      <circle cx="408" cy="16" r="6" fill="black" />
      <circle cx="408" cy="76" r="6" fill="black" />
    </g>
    <g transform="rotate(-135 408 56)">
      <rect x="405" y="56" width="6" height="28" fill="#205081" />
      <circle cx="408" cy="56" r="6" fill="#205081" />
      <circle cx="408" cy="84" r="6" fill="#205081" />
    </g>
    <g transform="rotate(-45 408 56)">
      <rect x="405" y="56" width="6" height="28" fill="#205081" />
      <circle cx="408" cy="56" r="6" fill="#205081" />
      <circle cx="408" cy="84" r="6" fill="#205081" />
    </g>
    <g transform="rotate(0 446 36)">
      <rect x="443" y="36" width="6" height="40" fill="black" />
      <circle cx="446" cy="36" r="6" fill="black" />
      <circle cx="446" cy="76" r="6" fill="black" />
    </g>
    <text x="20" y="65" font-family="Verdana" font-size="45" fill="#000000">Powered by</text>
  </g>
  <defs>
    <linearGradient id="ButtonGradient" x1="0" y1="0" x2="0" y2="100%">
      <stop offset="0%" stop-color="white" />
      <stop offset="100%" stop-color="#80C0E1" />
    </linearGradient>
  </defs>
</svg>
